<?xml version="1.0" encoding="UTF-8" standalone="no"?>
<!DOCTYPE svg PUBLIC "-//W3C//DTD SVG 1.1//EN"
 "http://www.w3.org/Graphics/SVG/1.1/DTD/svg11.dtd">
<!-- Generated by graphviz version 2.26.3 (20100126.1600)
 -->
<!-- Title: name Pages: 1 -->
<svg width="872pt" height="936pt"
 viewBox="0.00 0.00 872.00 936.00" xmlns="http://www.w3.org/2000/svg" xmlns:xlink="http://www.w3.org/1999/xlink">
<g id="graph1" class="graph" transform="scale(1 1) rotate(0) translate(4 932)">
<title>name</title>
<polygon fill="white" stroke="white" points="-4,5 -4,-932 869,-932 869,5 -4,5"/>
<!-- cad_models_Insee -->
<g id="node1" class="node"><title>cad_models_Insee</title>
<polygon fill="palegoldenrod" stroke="palegoldenrod" points="48.5,-4.5 48.5,-57.5 119.5,-57.5 119.5,-4.5 48.5,-4.5"/>
<polygon fill="#698b22" stroke="#698b22" points="49,-40 49,-57 120,-57 120,-40 49,-40"/>
<text text-anchor="start" x="73.5" y="-46.6333" font-family="Helvetica Bold" font-size="8.00" fill="white">Insee</text>
<text text-anchor="start" x="51" y="-32.1333" font-family="Helvetica Bold" font-size="8.00" fill="#7b7b7b">id</text>
<text text-anchor="start" x="78" y="-32.1333" font-family="Helvetica Bold" font-size="8.00" fill="#7b7b7b">AutoField</text>
<text text-anchor="start" x="51" y="-20.1333" font-family="Helvetica Bold" font-size="8.00">code</text>
<text text-anchor="start" x="78" y="-20.1333" font-family="Helvetica Bold" font-size="8.00">CharField</text>
<text text-anchor="start" x="51" y="-8.13333" font-family="Helvetica Bold" font-size="8.00">name</text>
<text text-anchor="start" x="78" y="-8.13333" font-family="Helvetica Bold" font-size="8.00">CharField</text>
</g>
<!-- cad_models_CadEvalCult -->
<g id="node2" class="node"><title>cad_models_CadEvalCult</title>
<polygon fill="palegoldenrod" stroke="palegoldenrod" points="8,-450.5 8,-515.5 92,-515.5 92,-450.5 8,-450.5"/>
<polygon fill="#698b22" stroke="#698b22" points="8,-498 8,-515 92,-515 92,-498 8,-498"/>
<text text-anchor="start" x="25.5" y="-504.633" font-family="Helvetica Bold" font-size="8.00" fill="white">CadEvalCult</text>
<text text-anchor="start" x="10" y="-490.133" font-family="Helvetica Bold" font-size="8.00" fill="#7b7b7b">id</text>
<text text-anchor="start" x="50" y="-490.133" font-family="Helvetica Bold" font-size="8.00" fill="#7b7b7b">AutoField</text>
<text text-anchor="start" x="10" y="-478.133" font-family="Helvetica Bold" font-size="8.00">gr_ss_gr</text>
<text text-anchor="start" x="50" y="-478.133" font-family="Helvetica Bold" font-size="8.00">CharField</text>
<text text-anchor="start" x="10" y="-466.133" font-family="Helvetica Bold" font-size="8.00">classe</text>
<text text-anchor="start" x="50" y="-466.133" font-family="Helvetica Bold" font-size="8.00">CharField</text>
<text text-anchor="start" x="10" y="-454.133" font-family="Helvetica Bold" font-size="8.00">nat_cult</text>
<text text-anchor="start" x="50" y="-454.133" font-family="Helvetica Bold" font-size="8.00">CharField</text>
</g>
<!-- cad_models_CadEvalCult&#45;&gt;cad_models_Insee -->
<g id="edge2" class="edge"><title>cad_models_CadEvalCult&#45;&gt;cad_models_Insee</title>
<path fill="none" stroke="black" d="M51.115,-438.05C51.968,-399.76 53,-343.27 53,-294 53,-294 53,-294 53,-135 53,-109.57 61.621,-82.035 69.77,-61.692"/>
<ellipse fill="black" stroke="black" cx="51.0158" cy="-442.421" rx="4" ry="4"/>
<text text-anchor="middle" x="86.5" y="-237.8" font-family="Helvetica,sans-Serif" font-size="8.00">insee (cadevalcult)</text>
</g>
<!-- cad_models_Prospective -->
<g id="node4" class="node"><title>cad_models_Prospective</title>
<polygon fill="palegoldenrod" stroke="palegoldenrod" points="95,-352.5 95,-393.5 169,-393.5 169,-352.5 95,-352.5"/>
<polygon fill="#698b22" stroke="#698b22" points="95,-376 95,-393 169,-393 169,-376 95,-376"/>
<text text-anchor="start" x="108.5" y="-382.633" font-family="Helvetica Bold" font-size="8.00" fill="white">Prospective</text>
<text text-anchor="start" x="97" y="-368.133" font-family="Helvetica Bold" font-size="8.00" fill="#7b7b7b">id</text>
<text text-anchor="start" x="127" y="-368.133" font-family="Helvetica Bold" font-size="8.00" fill="#7b7b7b">AutoField</text>
<text text-anchor="start" x="97" y="-356.133" font-family="Helvetica Bold" font-size="8.00" fill="#7b7b7b">theme</text>
<text text-anchor="start" x="127" y="-356.133" font-family="Helvetica Bold" font-size="8.00" fill="#7b7b7b">CharField</text>
</g>
<!-- cad_models_ProspectiveTranslation -->
<g id="node5" class="node"><title>cad_models_ProspectiveTranslation</title>
<polygon fill="palegoldenrod" stroke="palegoldenrod" points="81.5,-566.5 81.5,-607.5 182.5,-607.5 182.5,-566.5 81.5,-566.5"/>
<polygon fill="#698b22" stroke="#698b22" points="82,-590 82,-607 183,-607 183,-590 82,-590"/>
<text text-anchor="start" x="86.5" y="-596.633" font-family="Helvetica Bold" font-size="8.00" fill="white">ProspectiveTranslation</text>
<text text-anchor="start" x="84" y="-582.133" font-family="Helvetica Bold" font-size="8.00" fill="#7b7b7b">name</text>
<text text-anchor="start" x="135" y="-582.133" font-family="Helvetica Bold" font-size="8.00" fill="#7b7b7b">TextField</text>
<text text-anchor="start" x="84" y="-570.133" font-family="Helvetica Bold" font-size="8.00">lang</text>
<text text-anchor="start" x="135" y="-570.133" font-family="Helvetica Bold" font-size="8.00">CharField</text>
</g>
<!-- cad_models_ProspectiveTranslation&#45;&gt;cad_models_Prospective -->
<g id="edge4" class="edge"><title>cad_models_ProspectiveTranslation&#45;&gt;cad_models_Prospective</title>
<path fill="none" stroke="black" d="M132,-554.27C132,-511.13 132,-436.21 132,-397.59"/>
<ellipse fill="black" stroke="black" cx="132" cy="-558.45" rx="4" ry="4"/>
<text text-anchor="middle" x="178" y="-481.8" font-family="Helvetica,sans-Serif" font-size="8.00">id (prospectivetranslation)</text>
</g>
<!-- cad_models_Section -->
<g id="node7" class="node"><title>cad_models_Section</title>
<polygon fill="palegoldenrod" stroke="palegoldenrod" points="109.5,-114.5 109.5,-155.5 180.5,-155.5 180.5,-114.5 109.5,-114.5"/>
<polygon fill="#698b22" stroke="#698b22" points="110,-138 110,-155 181,-155 181,-138 110,-138"/>
<text text-anchor="start" x="130" y="-144.633" font-family="Helvetica Bold" font-size="8.00" fill="white">Section</text>
<text text-anchor="start" x="112" y="-130.133" font-family="Helvetica Bold" font-size="8.00" fill="#7b7b7b">id</text>
<text text-anchor="start" x="139" y="-130.133" font-family="Helvetica Bold" font-size="8.00" fill="#7b7b7b">AutoField</text>
<text text-anchor="start" x="112" y="-118.133" font-family="Helvetica Bold" font-size="8.00">name</text>
<text text-anchor="start" x="139" y="-118.133" font-family="Helvetica Bold" font-size="8.00">CharField</text>
</g>
<!-- cad_models_Section&#45;&gt;cad_models_Insee -->
<g id="edge6" class="edge"><title>cad_models_Section&#45;&gt;cad_models_Insee</title>
<path fill="none" stroke="black" d="M126.39,-103.27C118.67,-90.103 109.73,-74.874 102.07,-61.801"/>
<ellipse fill="black" stroke="black" cx="128.517" cy="-106.899" rx="4.00002" ry="4.00002"/>
<text text-anchor="middle" x="144" y="-84.8" font-family="Helvetica,sans-Serif" font-size="8.00">insee (section)</text>
</g>
<!-- cad_models_Lieudit -->
<g id="node9" class="node"><title>cad_models_Lieudit</title>
<polygon fill="palegoldenrod" stroke="palegoldenrod" points="163.5,-212.5 163.5,-265.5 252.5,-265.5 252.5,-212.5 163.5,-212.5"/>
<polygon fill="#698b22" stroke="#698b22" points="164,-248 164,-265 253,-265 253,-248 164,-248"/>
<text text-anchor="start" x="194.5" y="-254.633" font-family="Helvetica Bold" font-size="8.00" fill="white">Lieudit</text>
<text text-anchor="start" x="166" y="-240.133" font-family="Helvetica Bold" font-size="8.00" fill="#7b7b7b">id</text>
<text text-anchor="start" x="211" y="-240.133" font-family="Helvetica Bold" font-size="8.00" fill="#7b7b7b">AutoField</text>
<text text-anchor="start" x="166" y="-228.133" font-family="Helvetica Bold" font-size="8.00" fill="#7b7b7b">name</text>
<text text-anchor="start" x="211" y="-228.133" font-family="Helvetica Bold" font-size="8.00" fill="#7b7b7b">CharField</text>
<text text-anchor="start" x="166" y="-216.133" font-family="Helvetica Bold" font-size="8.00" fill="#7b7b7b">cod_rivoli</text>
<text text-anchor="start" x="211" y="-216.133" font-family="Helvetica Bold" font-size="8.00" fill="#7b7b7b">CharField</text>
</g>
<!-- cad_models_Lieudit&#45;&gt;cad_models_Section -->
<g id="edge8" class="edge"><title>cad_models_Lieudit&#45;&gt;cad_models_Section</title>
<path fill="none" stroke="black" d="M185.16,-201.3C176.8,-187.49 167.55,-172.23 160.05,-159.84"/>
<ellipse fill="black" stroke="black" cx="187.366" cy="-204.939" rx="4.00002" ry="4.00002"/>
<text text-anchor="middle" x="203" y="-182.8" font-family="Helvetica,sans-Serif" font-size="8.00">section (lieudit)</text>
</g>
<!-- cad_models_VgOwners -->
<g id="node11" class="node"><title>cad_models_VgOwners</title>
<polygon fill="palegoldenrod" stroke="palegoldenrod" points="194,-822.5 194,-923.5 304,-923.5 304,-822.5 194,-822.5"/>
<polygon fill="#698b22" stroke="#698b22" points="194,-906 194,-923 304,-923 304,-906 194,-906"/>
<text text-anchor="start" x="229" y="-912.633" font-family="Helvetica Bold" font-size="8.00" fill="white">VgOwners</text>
<text text-anchor="start" x="196" y="-898.133" font-family="Helvetica Bold" font-size="8.00">gid</text>
<text text-anchor="start" x="249" y="-898.133" font-family="Helvetica Bold" font-size="8.00">IntegerField</text>
<text text-anchor="start" x="196" y="-886.133" font-family="Helvetica Bold" font-size="8.00" fill="#7b7b7b">id_prj</text>
<text text-anchor="start" x="249" y="-886.133" font-family="Helvetica Bold" font-size="8.00" fill="#7b7b7b">IntegerField</text>
<text text-anchor="start" x="196" y="-874.133" font-family="Helvetica Bold" font-size="8.00" fill="#7b7b7b">name</text>
<text text-anchor="start" x="249" y="-874.133" font-family="Helvetica Bold" font-size="8.00" fill="#7b7b7b">CharField</text>
<text text-anchor="start" x="196" y="-862.133" font-family="Helvetica Bold" font-size="8.00" fill="#7b7b7b">theme</text>
<text text-anchor="start" x="249" y="-862.133" font-family="Helvetica Bold" font-size="8.00" fill="#7b7b7b">CharField</text>
<text text-anchor="start" x="196" y="-850.133" font-family="Helvetica Bold" font-size="8.00" fill="#7b7b7b">updated_by</text>
<text text-anchor="start" x="249" y="-850.133" font-family="Helvetica Bold" font-size="8.00" fill="#7b7b7b">IntegerField</text>
<text text-anchor="start" x="196" y="-838.133" font-family="Helvetica Bold" font-size="8.00" fill="#7b7b7b">activated</text>
<text text-anchor="start" x="249" y="-838.133" font-family="Helvetica Bold" font-size="8.00" fill="#7b7b7b">BooleanField</text>
<text text-anchor="start" x="196" y="-826.133" font-family="Helvetica Bold" font-size="8.00">the_geom</text>
<text text-anchor="start" x="249" y="-826.133" font-family="Helvetica Bold" font-size="8.00">PolygonField</text>
</g>
<!-- cad_models_VgProspective -->
<g id="node12" class="node"><title>cad_models_VgProspective</title>
<polygon fill="palegoldenrod" stroke="palegoldenrod" points="338,-822.5 338,-923.5 468,-923.5 468,-822.5 338,-822.5"/>
<polygon fill="#698b22" stroke="#698b22" points="338,-906 338,-923 468,-923 468,-906 338,-906"/>
<text text-anchor="start" x="374" y="-912.633" font-family="Helvetica Bold" font-size="8.00" fill="white">VgProspective</text>
<text text-anchor="start" x="340" y="-898.133" font-family="Helvetica Bold" font-size="8.00">gid</text>
<text text-anchor="start" x="393" y="-898.133" font-family="Helvetica Bold" font-size="8.00">IntegerField</text>
<text text-anchor="start" x="340" y="-886.133" font-family="Helvetica Bold" font-size="8.00" fill="#7b7b7b">name</text>
<text text-anchor="start" x="393" y="-886.133" font-family="Helvetica Bold" font-size="8.00" fill="#7b7b7b">CharField</text>
<text text-anchor="start" x="340" y="-874.133" font-family="Helvetica Bold" font-size="8.00" fill="#7b7b7b">theme</text>
<text text-anchor="start" x="393" y="-874.133" font-family="Helvetica Bold" font-size="8.00" fill="#7b7b7b">CharField</text>
<text text-anchor="start" x="340" y="-862.133" font-family="Helvetica Bold" font-size="8.00" fill="#7b7b7b">id_prj</text>
<text text-anchor="start" x="393" y="-862.133" font-family="Helvetica Bold" font-size="8.00" fill="#7b7b7b">IntegerField</text>
<text text-anchor="start" x="340" y="-850.133" font-family="Helvetica Bold" font-size="8.00" fill="#7b7b7b">updated_by</text>
<text text-anchor="start" x="393" y="-850.133" font-family="Helvetica Bold" font-size="8.00" fill="#7b7b7b">IntegerField</text>
<text text-anchor="start" x="340" y="-838.133" font-family="Helvetica Bold" font-size="8.00" fill="#7b7b7b">activated</text>
<text text-anchor="start" x="393" y="-838.133" font-family="Helvetica Bold" font-size="8.00" fill="#7b7b7b">BooleanField</text>
<text text-anchor="start" x="340" y="-826.133" font-family="Helvetica Bold" font-size="8.00">the_geom</text>
<text text-anchor="start" x="393" y="-826.133" font-family="Helvetica Bold" font-size="8.00">MultiPolygonField</text>
</g>
<!-- cad_models_Parcel -->
<g id="node13" class="node"><title>cad_models_Parcel</title>
<polygon fill="palegoldenrod" stroke="palegoldenrod" points="202.5,-322.5 202.5,-423.5 325.5,-423.5 325.5,-322.5 202.5,-322.5"/>
<polygon fill="#698b22" stroke="#698b22" points="203,-406 203,-423 326,-423 326,-406 203,-406"/>
<text text-anchor="start" x="252" y="-412.633" font-family="Helvetica Bold" font-size="8.00" fill="white">Parcel</text>
<text text-anchor="start" x="205" y="-398.133" font-family="Helvetica Bold" font-size="8.00" fill="#7b7b7b">id</text>
<text text-anchor="start" x="271" y="-398.133" font-family="Helvetica Bold" font-size="8.00" fill="#7b7b7b">AutoField</text>
<text text-anchor="start" x="205" y="-386.133" font-family="Helvetica Bold" font-size="8.00" fill="#7b7b7b">num_plan</text>
<text text-anchor="start" x="271" y="-386.133" font-family="Helvetica Bold" font-size="8.00" fill="#7b7b7b">IntegerField</text>
<text text-anchor="start" x="205" y="-374.133" font-family="Helvetica Bold" font-size="8.00" fill="#7b7b7b">num_parc_prim</text>
<text text-anchor="start" x="271" y="-374.133" font-family="Helvetica Bold" font-size="8.00" fill="#7b7b7b">IntegerField</text>
<text text-anchor="start" x="205" y="-362.133" font-family="Helvetica Bold" font-size="8.00" fill="#7b7b7b">code_edigeo</text>
<text text-anchor="start" x="271" y="-362.133" font-family="Helvetica Bold" font-size="8.00" fill="#7b7b7b">CharField</text>
<text text-anchor="start" x="205" y="-350.133" font-family="Helvetica Bold" font-size="8.00" fill="#7b7b7b">gid</text>
<text text-anchor="start" x="271" y="-350.133" font-family="Helvetica Bold" font-size="8.00" fill="#7b7b7b">IntegerField</text>
<text text-anchor="start" x="205" y="-338.133" font-family="Helvetica Bold" font-size="8.00" fill="#7b7b7b">edigeo_area</text>
<text text-anchor="start" x="271" y="-338.133" font-family="Helvetica Bold" font-size="8.00" fill="#7b7b7b">DecimalField</text>
<text text-anchor="start" x="205" y="-326.133" font-family="Helvetica Bold" font-size="8.00">the_geom</text>
<text text-anchor="start" x="271" y="-326.133" font-family="Helvetica Bold" font-size="8.00">PolygonField</text>
</g>
<!-- cad_models_Parcel&#45;&gt;cad_models_Lieudit -->
<g id="edge10" class="edge"><title>cad_models_Parcel&#45;&gt;cad_models_Lieudit</title>
<path fill="none" stroke="black" d="M238.1,-311.02C232.09,-296.64 225.95,-281.95 220.79,-269.62"/>
<ellipse fill="black" stroke="black" cx="239.68" cy="-314.808" rx="4.00002" ry="4.00002"/>
<text text-anchor="middle" x="257.5" y="-292.8" font-family="Helvetica,sans-Serif" font-size="8.00">lieudit (parcel)</text>
</g>
<!-- cad_models_Owner -->
<g id="node15" class="node"><title>cad_models_Owner</title>
<polygon fill="palegoldenrod" stroke="palegoldenrod" points="518.5,-328.5 518.5,-417.5 627.5,-417.5 627.5,-328.5 518.5,-328.5"/>
<polygon fill="#698b22" stroke="#698b22" points="519,-400 519,-417 628,-417 628,-400 519,-400"/>
<text text-anchor="start" x="561" y="-406.633" font-family="Helvetica Bold" font-size="8.00" fill="white">Owner</text>
<text text-anchor="start" x="521" y="-392.133" font-family="Helvetica Bold" font-size="8.00" fill="#7b7b7b">id</text>
<text text-anchor="start" x="575" y="-392.133" font-family="Helvetica Bold" font-size="8.00" fill="#7b7b7b">AutoField</text>
<text text-anchor="start" x="521" y="-380.133" font-family="Helvetica Bold" font-size="8.00" fill="#7b7b7b">name</text>
<text text-anchor="start" x="575" y="-380.133" font-family="Helvetica Bold" font-size="8.00" fill="#7b7b7b">CharField</text>
<text text-anchor="start" x="521" y="-368.133" font-family="Helvetica Bold" font-size="8.00" fill="#7b7b7b">address</text>
<text text-anchor="start" x="575" y="-368.133" font-family="Helvetica Bold" font-size="8.00" fill="#7b7b7b">CharField</text>
<text text-anchor="start" x="521" y="-356.133" font-family="Helvetica Bold" font-size="8.00" fill="#7b7b7b">phone</text>
<text text-anchor="start" x="575" y="-356.133" font-family="Helvetica Bold" font-size="8.00" fill="#7b7b7b">CharField</text>
<text text-anchor="start" x="521" y="-344.133" font-family="Helvetica Bold" font-size="8.00" fill="#7b7b7b">theme</text>
<text text-anchor="start" x="575" y="-344.133" font-family="Helvetica Bold" font-size="8.00" fill="#7b7b7b">CharField</text>
<text text-anchor="start" x="521" y="-332.133" font-family="Helvetica Bold" font-size="8.00" fill="#7b7b7b">edigeo_area</text>
<text text-anchor="start" x="575" y="-332.133" font-family="Helvetica Bold" font-size="8.00" fill="#7b7b7b">DecimalField</text>
</g>
<!-- cad_models_ParcelOwner -->
<g id="node16" class="node"><title>cad_models_ParcelOwner</title>
<polygon fill="palegoldenrod" stroke="palegoldenrod" points="403,-542.5 403,-631.5 515,-631.5 515,-542.5 403,-542.5"/>
<polygon fill="#698b22" stroke="#698b22" points="403,-614 403,-631 515,-631 515,-614 403,-614"/>
<text text-anchor="start" x="434.5" y="-620.633" font-family="Helvetica Bold" font-size="8.00" fill="white">ParcelOwner</text>
<text text-anchor="start" x="405" y="-606.133" font-family="Helvetica Bold" font-size="8.00" fill="#7b7b7b">id</text>
<text text-anchor="start" x="456" y="-606.133" font-family="Helvetica Bold" font-size="8.00" fill="#7b7b7b">AutoField</text>
<text text-anchor="start" x="405" y="-594.133" font-family="Helvetica Bold" font-size="8.00" fill="#7b7b7b">year</text>
<text text-anchor="start" x="456" y="-594.133" font-family="Helvetica Bold" font-size="8.00" fill="#7b7b7b">CharField</text>
<text text-anchor="start" x="405" y="-582.133" font-family="Helvetica Bold" font-size="8.00" fill="#7b7b7b">activated</text>
<text text-anchor="start" x="456" y="-582.133" font-family="Helvetica Bold" font-size="8.00" fill="#7b7b7b">BooleanField</text>
<text text-anchor="start" x="405" y="-570.133" font-family="Helvetica Bold" font-size="8.00" fill="#7b7b7b">comments</text>
<text text-anchor="start" x="456" y="-570.133" font-family="Helvetica Bold" font-size="8.00" fill="#7b7b7b">CharField</text>
<text text-anchor="start" x="405" y="-558.133" font-family="Helvetica Bold" font-size="8.00" fill="#7b7b7b">created_at</text>
<text text-anchor="start" x="456" y="-558.133" font-family="Helvetica Bold" font-size="8.00" fill="#7b7b7b">DateTimeField</text>
<text text-anchor="start" x="405" y="-546.133" font-family="Helvetica Bold" font-size="8.00" fill="#7b7b7b">updated_at</text>
<text text-anchor="start" x="456" y="-546.133" font-family="Helvetica Bold" font-size="8.00" fill="#7b7b7b">DateTimeField</text>
</g>
<!-- cad_models_ParcelOwner&#45;&gt;cad_models_Prospective -->
<g id="edge12" class="edge"><title>cad_models_ParcelOwner&#45;&gt;cad_models_Prospective</title>
<path fill="none" stroke="black" d="M387.21,-564.96C364.09,-554.65 340.27,-540.09 324,-520 302.63,-493.61 330.19,-468.77 305,-446 265.31,-410.14 233.63,-452.34 186,-428 172.06,-420.88 159.58,-408.78 150.14,-397.74"/>
<ellipse fill="black" stroke="black" cx="391.003" cy="-566.585" rx="4.00002" ry="4.00002"/>
<text text-anchor="middle" x="371" y="-481.8" font-family="Helvetica,sans-Serif" font-size="8.00">prospective (parcelowner)</text>
</g>
<!-- cad_models_ParcelOwner&#45;&gt;cad_models_Parcel -->
<g id="edge14" class="edge"><title>cad_models_ParcelOwner&#45;&gt;cad_models_Parcel</title>
<path fill="none" stroke="black" d="M443.78,-530.53C442.84,-526.97 441.9,-523.43 441,-520 432.37,-487.16 443.74,-472.09 422,-446 399.37,-418.84 364.42,-401.26 333.14,-390.17"/>
<ellipse fill="black" stroke="black" cx="444.832" cy="-534.484" rx="4.00001" ry="4.00001"/>
<text text-anchor="middle" x="473" y="-481.8" font-family="Helvetica,sans-Serif" font-size="8.00">prc (parcelowner)</text>
</g>
<!-- cad_models_ParcelOwner&#45;&gt;cad_models_Owner -->
<g id="edge16" class="edge"><title>cad_models_ParcelOwner&#45;&gt;cad_models_Owner</title>
<path fill="none" stroke="black" d="M503.02,-531.2C505.19,-527.5 507.21,-523.75 509,-520 523.65,-489.37 514.72,-477.25 528,-446 531.44,-437.92 535.68,-429.68 540.17,-421.79"/>
<ellipse fill="black" stroke="black" cx="500.777" cy="-534.844" rx="4.00002" ry="4.00002"/>
<text text-anchor="middle" x="559" y="-481.8" font-family="Helvetica,sans-Serif" font-size="8.00">prj (parcelowner)</text>
</g>
<!-- guard_models_SfGuardUser -->
<g id="node20" class="node"><title>guard_models_SfGuardUser</title>
<polygon fill="palegoldenrod" stroke="palegoldenrod" points="722.5,-364.5 722.5,-381.5 783.5,-381.5 783.5,-364.5 722.5,-364.5"/>
<polygon fill="#698b22" stroke="#698b22" points="723,-364 723,-381 784,-381 784,-364 723,-364"/>
<text text-anchor="start" x="728" y="-370.633" font-family="Helvetica Bold" font-size="8.00" fill="white">SfGuardUser</text>
</g>
<!-- cad_models_ParcelOwner&#45;&gt;guard_models_SfGuardUser -->
<g id="edge18" class="edge"><title>cad_models_ParcelOwner&#45;&gt;guard_models_SfGuardUser</title>
<path fill="none" stroke="black" d="M530.56,-544.48C536.02,-542.06 541.54,-539.86 547,-538 597.62,-520.71 625,-554.36 666,-520 692.61,-497.7 673.9,-476.21 691,-446 702.71,-425.31 720.68,-404.95 734.27,-391.02"/>
<ellipse fill="black" stroke="black" cx="526.784" cy="-546.218" rx="4.00002" ry="4.00002"/>
<text text-anchor="middle" x="738.5" y="-481.8" font-family="Helvetica,sans-Serif" font-size="8.00">updated_by (parcelowner)</text>
</g>
<!-- cad_models_CadPrjUser -->
<g id="node22" class="node"><title>cad_models_CadPrjUser</title>
<polygon fill="palegoldenrod" stroke="palegoldenrod" points="563.5,-566.5 563.5,-607.5 668.5,-607.5 668.5,-566.5 563.5,-566.5"/>
<polygon fill="#698b22" stroke="#698b22" points="564,-590 564,-607 669,-607 669,-590 564,-590"/>
<text text-anchor="start" x="594" y="-596.633" font-family="Helvetica Bold" font-size="8.00" fill="white">CadPrjUser</text>
<text text-anchor="start" x="566" y="-582.133" font-family="Helvetica Bold" font-size="8.00" fill="#7b7b7b">id</text>
<text text-anchor="start" x="616" y="-582.133" font-family="Helvetica Bold" font-size="8.00" fill="#7b7b7b">AutoField</text>
<text text-anchor="start" x="566" y="-570.133" font-family="Helvetica Bold" font-size="8.00" fill="#7b7b7b">percentage</text>
<text text-anchor="start" x="616" y="-570.133" font-family="Helvetica Bold" font-size="8.00" fill="#7b7b7b">DecimalField</text>
</g>
<!-- cad_models_CadPrjUser&#45;&gt;cad_models_Owner -->
<g id="edge20" class="edge"><title>cad_models_CadPrjUser&#45;&gt;cad_models_Owner</title>
<path fill="none" stroke="black" d="M612.08,-554.3C608.36,-525.58 602.12,-482.77 594,-446 592.26,-438.15 590.16,-429.89 587.97,-421.87"/>
<ellipse fill="black" stroke="black" cx="612.604" cy="-558.402" rx="4.00001" ry="4.00001"/>
<text text-anchor="middle" x="634.5" y="-481.8" font-family="Helvetica,sans-Serif" font-size="8.00">prj (cadprjuser)</text>
</g>
<!-- cad_models_CadPrjUser&#45;&gt;guard_models_SfGuardUser -->
<g id="edge22" class="edge"><title>cad_models_CadPrjUser&#45;&gt;guard_models_SfGuardUser</title>
<path fill="none" stroke="black" d="M651.09,-557.53C661.46,-550.12 673.2,-542.9 685,-538 728.73,-519.84 759.48,-556.2 790,-520 821.72,-482.38 787.36,-421.28 766.53,-391.08"/>
<ellipse fill="black" stroke="black" cx="647.709" cy="-560.025" rx="4.00002" ry="4.00002"/>
<text text-anchor="middle" x="833" y="-481.8" font-family="Helvetica,sans-Serif" font-size="8.00">user (cadprjuser)</text>
</g>
<!-- cad_models_CadSubfisc -->
<g id="node25" class="node"><title>cad_models_CadSubfisc</title>
<polygon fill="palegoldenrod" stroke="palegoldenrod" points="215.5,-560.5 215.5,-613.5 298.5,-613.5 298.5,-560.5 215.5,-560.5"/>
<polygon fill="#698b22" stroke="#698b22" points="216,-596 216,-613 299,-613 299,-596 216,-596"/>
<text text-anchor="start" x="234.5" y="-602.633" font-family="Helvetica Bold" font-size="8.00" fill="white">CadSubfisc</text>
<text text-anchor="start" x="218" y="-588.133" font-family="Helvetica Bold" font-size="8.00" fill="#7b7b7b">id</text>
<text text-anchor="start" x="246" y="-588.133" font-family="Helvetica Bold" font-size="8.00" fill="#7b7b7b">AutoField</text>
<text text-anchor="start" x="218" y="-576.133" font-family="Helvetica Bold" font-size="8.00" fill="#7b7b7b">suf</text>
<text text-anchor="start" x="246" y="-576.133" font-family="Helvetica Bold" font-size="8.00" fill="#7b7b7b">CharField</text>
<text text-anchor="start" x="218" y="-564.133" font-family="Helvetica Bold" font-size="8.00" fill="#7b7b7b">area</text>
<text text-anchor="start" x="246" y="-564.133" font-family="Helvetica Bold" font-size="8.00" fill="#7b7b7b">DecimalField</text>
</g>
<!-- cad_models_CadSubfisc&#45;&gt;cad_models_Parcel -->
<g id="edge24" class="edge"><title>cad_models_CadSubfisc&#45;&gt;cad_models_Parcel</title>
<path fill="none" stroke="black" d="M250.92,-548.43C249.71,-539.15 248.62,-529.24 248,-520 245.81,-487.18 244.46,-478.7 248,-446 248.64,-440.07 249.57,-433.91 250.66,-427.8"/>
<ellipse fill="black" stroke="black" cx="251.468" cy="-552.437" rx="4.00001" ry="4.00001"/>
<text text-anchor="middle" x="276.5" y="-481.8" font-family="Helvetica,sans-Serif" font-size="8.00">prc (cadsubfisc)</text>
</g>
<!-- cad_models_CadFrt -->
<g id="node27" class="node"><title>cad_models_CadFrt</title>
<polygon fill="palegoldenrod" stroke="palegoldenrod" points="479,-688.5 479,-765.5 601,-765.5 601,-688.5 479,-688.5"/>
<polygon fill="#698b22" stroke="#698b22" points="479,-748 479,-765 601,-765 601,-748 479,-748"/>
<text text-anchor="start" x="526" y="-754.633" font-family="Helvetica Bold" font-size="8.00" fill="white">CadFrt</text>
<text text-anchor="start" x="481" y="-740.133" font-family="Helvetica Bold" font-size="8.00">id</text>
<text text-anchor="start" x="548" y="-740.133" font-family="Helvetica Bold" font-size="8.00">IntegerField</text>
<text text-anchor="start" x="481" y="-728.133" font-family="Helvetica Bold" font-size="8.00" fill="#7b7b7b">neo_nat_cu</text>
<text text-anchor="start" x="548" y="-728.133" font-family="Helvetica Bold" font-size="8.00" fill="#7b7b7b">CharField</text>
<text text-anchor="start" x="481" y="-716.133" font-family="Helvetica Bold" font-size="8.00" fill="#7b7b7b">neo_gr_ss</text>
<text text-anchor="start" x="548" y="-716.133" font-family="Helvetica Bold" font-size="8.00" fill="#7b7b7b">CharField</text>
<text text-anchor="start" x="481" y="-704.133" font-family="Helvetica Bold" font-size="8.00" fill="#7b7b7b">neo_suf</text>
<text text-anchor="start" x="548" y="-704.133" font-family="Helvetica Bold" font-size="8.00" fill="#7b7b7b">CharField</text>
<text text-anchor="start" x="481" y="-692.133" font-family="Helvetica Bold" font-size="8.00" fill="#7b7b7b">calculated_area</text>
<text text-anchor="start" x="548" y="-692.133" font-family="Helvetica Bold" font-size="8.00" fill="#7b7b7b">DecimalField</text>
</g>
<!-- cad_models_CadFrt&#45;&gt;cad_models_CadSubfisc -->
<g id="edge26" class="edge"><title>cad_models_CadFrt&#45;&gt;cad_models_CadSubfisc</title>
<path fill="none" stroke="black" d="M463.48,-689.15C413.37,-664.36 349.37,-632.7 306,-611.24"/>
<ellipse fill="black" stroke="black" cx="467.183" cy="-690.979" rx="4.00002" ry="4.00002"/>
<text text-anchor="middle" x="441.5" y="-658.8" font-family="Helvetica,sans-Serif" font-size="8.00">subfisc (cadfrt)</text>
</g>
<!-- frt_models_Sprf -->
<g id="node29" class="node"><title>frt_models_Sprf</title>
<polygon fill="palegoldenrod" stroke="palegoldenrod" points="707.5,-578.5 707.5,-595.5 734.5,-595.5 734.5,-578.5 707.5,-578.5"/>
<polygon fill="#698b22" stroke="#698b22" points="708,-578 708,-595 735,-595 735,-578 708,-578"/>
<text text-anchor="start" x="713" y="-584.633" font-family="Helvetica Bold" font-size="8.00" fill="white">Sprf</text>
</g>
<!-- cad_models_CadFrt&#45;&gt;frt_models_Sprf -->
<g id="edge28" class="edge"><title>cad_models_CadFrt&#45;&gt;frt_models_Sprf</title>
<path fill="none" stroke="black" d="M615.97,-686.74C639.44,-672.41 664.49,-655.06 685,-636 694.74,-626.95 703.62,-614.93 710.12,-605.07"/>
<ellipse fill="black" stroke="black" cx="612.498" cy="-688.828" rx="4.00002" ry="4.00002"/>
<text text-anchor="middle" x="684.5" y="-658.8" font-family="Helvetica,sans-Serif" font-size="8.00">sprf (cadfrt)</text>
</g>
<!-- cad_models_CadFiscalite -->
<g id="node31" class="node"><title>cad_models_CadFiscalite</title>
<polygon fill="palegoldenrod" stroke="palegoldenrod" points="54.5,-694.5 54.5,-759.5 153.5,-759.5 153.5,-694.5 54.5,-694.5"/>
<polygon fill="#698b22" stroke="#698b22" points="55,-742 55,-759 154,-759 154,-742 55,-742"/>
<text text-anchor="start" x="80" y="-748.633" font-family="Helvetica Bold" font-size="8.00" fill="white">CadFiscalite</text>
<text text-anchor="start" x="57" y="-734.133" font-family="Helvetica Bold" font-size="8.00">id</text>
<text text-anchor="start" x="99" y="-734.133" font-family="Helvetica Bold" font-size="8.00">IntegerField</text>
<text text-anchor="start" x="57" y="-722.133" font-family="Helvetica Bold" font-size="8.00" fill="#7b7b7b">rc</text>
<text text-anchor="start" x="99" y="-722.133" font-family="Helvetica Bold" font-size="8.00" fill="#7b7b7b">DecimalField</text>
<text text-anchor="start" x="57" y="-710.133" font-family="Helvetica Bold" font-size="8.00" fill="#7b7b7b">year</text>
<text text-anchor="start" x="99" y="-710.133" font-family="Helvetica Bold" font-size="8.00" fill="#7b7b7b">CharField</text>
<text text-anchor="start" x="57" y="-698.133" font-family="Helvetica Bold" font-size="8.00" fill="#7b7b7b">activated</text>
<text text-anchor="start" x="99" y="-698.133" font-family="Helvetica Bold" font-size="8.00" fill="#7b7b7b">BooleanField</text>
</g>
<!-- cad_models_CadFiscalite&#45;&gt;cad_models_CadEvalCult -->
<g id="edge30" class="edge"><title>cad_models_CadFiscalite&#45;&gt;cad_models_CadEvalCult</title>
<path fill="none" stroke="black" d="M81.847,-682.84C75.414,-668.26 69.04,-651.74 65,-636 55.011,-597.09 51.583,-551.05 50.454,-519.71"/>
<ellipse fill="black" stroke="black" cx="83.557" cy="-686.625" rx="4.00002" ry="4.00002"/>
<text text-anchor="middle" x="114" y="-658.8" font-family="Helvetica,sans-Serif" font-size="8.00">eval_cult (cadfiscalite)</text>
</g>
<!-- cad_models_CadFiscalite&#45;&gt;cad_models_CadSubfisc -->
<g id="edge32" class="edge"><title>cad_models_CadFiscalite&#45;&gt;cad_models_CadSubfisc</title>
<path fill="none" stroke="black" d="M150.1,-684.82C173.74,-663.19 202,-637.33 223.53,-617.63"/>
<ellipse fill="black" stroke="black" cx="147.151" cy="-687.519" rx="4.00002" ry="4.00002"/>
<text text-anchor="middle" x="215.5" y="-658.8" font-family="Helvetica,sans-Serif" font-size="8.00">subfisc (cadfiscalite)</text>
</g>
<!-- cad_models_CadExoneration -->
<g id="node34" class="node"><title>cad_models_CadExoneration</title>
<polygon fill="palegoldenrod" stroke="palegoldenrod" points="48,-840.5 48,-905.5 160,-905.5 160,-840.5 48,-840.5"/>
<polygon fill="#698b22" stroke="#698b22" points="48,-888 48,-905 160,-905 160,-888 48,-888"/>
<text text-anchor="start" x="72" y="-894.633" font-family="Helvetica Bold" font-size="8.00" fill="white">CadExoneration</text>
<text text-anchor="start" x="50" y="-880.133" font-family="Helvetica Bold" font-size="8.00" fill="#7b7b7b">id</text>
<text text-anchor="start" x="110" y="-880.133" font-family="Helvetica Bold" font-size="8.00" fill="#7b7b7b">AutoField</text>
<text text-anchor="start" x="50" y="-868.133" font-family="Helvetica Bold" font-size="8.00" fill="#7b7b7b">nat_exo</text>
<text text-anchor="start" x="110" y="-868.133" font-family="Helvetica Bold" font-size="8.00" fill="#7b7b7b">CharField</text>
<text text-anchor="start" x="50" y="-856.133" font-family="Helvetica Bold" font-size="8.00" fill="#7b7b7b">until_year</text>
<text text-anchor="start" x="110" y="-856.133" font-family="Helvetica Bold" font-size="8.00" fill="#7b7b7b">CharField</text>
<text text-anchor="start" x="50" y="-844.133" font-family="Helvetica Bold" font-size="8.00" fill="#7b7b7b">pourcent_exo</text>
<text text-anchor="start" x="110" y="-844.133" font-family="Helvetica Bold" font-size="8.00" fill="#7b7b7b">IntegerField</text>
</g>
<!-- cad_models_CadExoneration&#45;&gt;cad_models_CadFiscalite -->
<g id="edge34" class="edge"><title>cad_models_CadExoneration&#45;&gt;cad_models_CadFiscalite</title>
<path fill="none" stroke="black" d="M104,-828.12C104,-807.42 104,-783.15 104,-763.58"/>
<ellipse fill="black" stroke="black" cx="104" cy="-832.16" rx="4" ry="4"/>
<text text-anchor="middle" x="148.5" y="-792.8" font-family="Helvetica,sans-Serif" font-size="8.00">fiscalite (cadexoneration)</text>
</g>
</g>
</svg>
